<?xml version="1.0" encoding="UTF-8"?>
<svg id="Layer_1" xmlns="http://www.w3.org/2000/svg" version="1.1" viewBox="0 0 437.1 300">
  <!-- Generator: Adobe Illustrator 29.5.1, SVG Export Plug-In . SVG Version: 2.1.0 Build 141)  -->
  <defs>
    <style>
      .st0 {
        fill: #4ead33;
      }

      .st1 {
        fill: #fff;
      }

      .st2 {
        fill: #70d031;
      }

      .st3 {
        fill: #e94b93;
      }
    </style>
  </defs>
  <path class="st1" d="M80.7,78.4h78.6V0h-78.6s0,78.4,0,78.4ZM135.1,55.5c-1.4,1.8-3.2,3.4-5.7,4.4-2.5.9-5.5,1.6-9,1.6h-17.7V17.2h16.5c4.8,0,8.7.9,11.3,3,2.8,2.1,4.1,4.8,4.1,8.5,0,2.1-.5,3.9-1.4,5.5s-2.3,2.8-4.4,3.7c2.5.9,4.6,2.3,6,4.1s2.1,4.1,2.1,6.9c.3,2.2-.4,4.5-1.8,6.6h0ZM123.9,33.7c1.1-.9,1.8-2.5,1.8-4.1,0-3.4-2.3-5.3-7.1-5.3h-6.9v11h6.9c2.3,0,4.1-.5,5.3-1.6ZM119.7,42.2h-8v11.9h7.8c2.8,0,4.8-.5,6.2-1.6,1.4-.9,2.1-2.5,2.1-4.4.2-3.9-2.6-5.9-8.1-5.9Z"/>
  <path class="st1" d="M179,78.4h78.6V0h-78.6v78.4ZM233.5,55.5c-1.4,1.8-3.2,3.4-5.7,4.4-2.5.9-5.5,1.6-9,1.6h-17.7V17.2h16.5c4.8,0,8.7.9,11.3,3,2.8,2.1,4.1,4.8,4.1,8.5,0,2.1-.5,3.9-1.4,5.5s-2.3,2.8-4.4,3.7c2.5.9,4.6,2.3,6,4.1s2.1,4.1,2.1,6.9c.2,2.2-.4,4.5-1.8,6.6h0ZM222.2,33.7c1.1-.9,1.8-2.5,1.8-4.1,0-3.4-2.3-5.3-7.1-5.3h-6.9v11h6.9c2.3,0,4.2-.5,5.3-1.6ZM218.1,42.2h-8v11.9h7.8c2.8,0,4.8-.5,6.2-1.6,1.4-.9,2.1-2.5,2.1-4.4.2-3.9-2.6-5.9-8.1-5.9Z"/>
  <path class="st1" d="M277.4,78.4h78.6V0h-78.6v78.4ZM333.7,58.4c-1.8.9-3.9,1.8-6.4,2.3-2.5.7-5.1.9-7.6.9-3.4,0-6.7-.5-9.7-1.6-2.8-.9-5.3-2.5-7.1-4.4-2.1-1.8-3.4-4.4-4.6-7.1-1.1-2.8-1.6-6-1.6-9.4s.5-6.4,1.6-9.2,2.5-5,4.6-7.1,4.6-3.4,7.4-4.6c2.8-1.1,6-1.6,9.7-1.6,2.5,0,4.8.2,6.9.7,2.3.5,4.1,1.1,6,2.3v8.5c-1.6-1.1-3.4-2.1-5.5-2.5-2.1-.7-4.1-.9-6.2-.9-3,0-5.5.5-7.8,1.6-2.1,1.1-3.7,2.8-4.8,4.8-1.1,2.1-1.6,4.8-1.6,7.8s.5,5.7,1.6,7.8,2.8,3.9,4.8,4.8c2.1,1.1,4.6,1.6,7.6,1.6,4.6,0,8.7-1.1,12.6-3.7v8.9h.1v.1Z"/>
  <path d="M419.8,211.5s.2,0,.2-.2c4.1-2.3,9.4-6.9,11.3-15.8,1.8-8,3-27.7-25.3-35.3-11.9-3.2-37.9-6.4-58.6,2.1-6.4,2.5-11.9,6-16.5,10.1l.2-25.2c0-17.6-14.2-32.3-31.9-32.3h-5.7c-17.7,0-32.4,14.2-32.4,31.9v12.1c-3.7,0-7.8,0-12.2.2-15.2.7-35.8,9.2-49.4,25.4-1.1-6.2-4.1-11.9-8.7-16.5l-1.1-1.1c6.4-5.7,10.3-14.2,10.3-23.6v-4.1c0-8.5-3.4-16.3-9.4-22.2-6-6-14-9.2-22.5-9.2h-5.5c-8.5,0-16.3,3.4-22.3,9.4-4.1,4.1-6.9,9.2-8.3,14.7-.5-.2-.9-.7-1.1-.9l-4.8-3.2c-14.7-9.9-34.9-6.2-44.8,8.7l-10.6,15.6c0-.5,0-.9-.2-1.6-1.8-16.3-15.6-28.4-31.9-28.4h-5.7c-17.7,0-32.4,14.4-32.4,32.1l-.5,113.5c0,17.6,14.5,32.3,32.2,32.3h5.7c8.5,0,16.5-3.2,22.7-9.4,5.7-5.7,9-13.1,9.4-21.1l10.6,15.6c4.8,7.1,12.2,11.9,20.5,13.8,8.5,1.6,17,0,24.1-4.8l4.8-3.2c2.3-1.6,4.6-3.4,6.4-5.5,5.7,8.7,15.6,14.7,26.7,14.7h5.7c13.3,0,24.6-8.3,29.4-19.9,4.4,5.7,10.3,10.5,17.9,13.8,9.4,4.1,18.8,6.2,27.8,6.2,10.1,0,19.5-2.5,27.8-7.8,5.7,4.8,12.9,7.6,20.7,7.8h5.7c8.5,0,16.8-3.2,23-9.2,1.1-1.1,2.3-2.5,3.2-3.9,5.7,5.3,13.8,8.9,23.4,10.8,6.7,1.1,14.5,2.3,23.2,2.3,11.7,0,24.8-2.1,37.9-8.7,30.3-15.6,29.2-42.9,27.1-53.9-1.6-10.3-7.3-19.2-16.1-26.1h0ZM260.6,215.4v13.3c0,2.1-.2,4.1,0,6.2,0,1.6.2,3.2-.9,4.8-.9,1.1-2.3,2.1-3.7,2.3-1.4.2-3-.2-3.9-1.4-.5-.7-.9-1.8-1.1-2.8-1.1-5-.9-10.3,1.1-15.1,1.4-3.4,4.3-7.3,8.5-7.3ZM113.1,207.6l18.4-22.9c-.2,1.8-.5,3.7-.5,5.5l.2,44.2-18.1-26.8Z"/>
  <path class="st0" d="M248.9,248c-10.3-1.8-11-15.6-10.6-27,.7-12.6,12.2-21.5,21.8-22.5,6.9-.7,11,.5,11.5.7l-.2,36.7c-2.8,8.4-11.3,13.9-22.5,12.1h0ZM298.5,121.2h-5.7c-11.3,0-20.5,8.9-20.7,20.2l-.2,24.8c-4.6-.7-12.4-1.4-23.4-.9-17.9.9-47.8,15.6-51.2,45.4-3.2,30,.7,57.3,22.5,66.7,20.2,8.7,39.3,6.4,53.1-7.6,3,7.3,10.3,12.6,18.8,12.6h5.7c11.3,0,20.5-8.9,20.7-20.2l.7-120.6c.2-11-9-20.1-20.3-20.4Z"/>
  <path class="st0" d="M327.9,194.8c-2.3,10.1-3,25.9,13.6,35.1,18.4,10.3,43,10.8,41.8,17.9-1.1,6.4-15.6,5-24.6,3-9-1.8-27.3-8-30.8,7.1-2.8,12.4,9,20.2,22.5,22.7,16.3,3,35.4,4.1,53.8-5.3,22.1-11.2,23-30.3,20.9-41.3-1.8-11-11.7-21.1-25.7-25.7-13.3-4.4-30.8-7.6-28.3-12.6,2.8-5,15.9-3,23.2-.5,9,3,23.4,5.5,26.4-7.6s-6.4-18.6-16.8-21.3c-9.9-2.8-33.3-5.7-51,1.6-14.2,6-22.5,16.1-25,26.9Z"/>
  <path class="st0" d="M97.7,201.9l30.8-38.5c6.4-9.4,3.9-22-5.5-28.4l-4.8-3.2c-9.4-6.4-22.1-3.9-28.5,5.5l-17.7,26.1-14.5,21.3v-36.2c0-.9,0-1.6-.2-2.5-1.1-10.1-9.9-18.1-20.2-18.1h-5.7c-11.3,0-20.5,9.2-20.5,20.4l-.3,113.7c0,11.2,9.2,20.4,20.5,20.4h5.7c11.3,0,20.5-9.2,20.5-20.4v-36.6l11,16.3,20.9,31.3c6.2,9.4,19.1,11.9,28.5,5.5l4.8-3.2c9.4-6.2,11.9-19,5.5-28.4l-30.3-45Z"/>
  <path class="st0" d="M167.3,165.2h-5.5c-11,0-20,8.9-19.8,19.9l.5,77.9c0,11,9,19.9,20,19.7h5.5c11,0,20-8.9,19.8-19.9l-.5-77.9c0-10.9-9-19.9-20-19.7h0Z"/>
  <path class="st3" d="M167.1,114.1h-5.5c-11,0-20,8.9-19.8,19.9v4.1c0,11,9,19.9,20,19.7h5.5c11,0,20-8.9,19.8-19.9v-4.1c0-11-9-19.9-20-19.7Z"/>
  <path class="st2" d="M248.9,248c-10.3-1.8-11-15.6-10.6-27,.7-12.6,12.2-21.5,21.8-22.5,6.9-.7,11,.5,11.5.7l-.2,36.7c-2.8,8.4-11.3,13.9-22.5,12.1h0ZM298.5,121.2h-5.7c-11.3,0-20.5,8.9-20.7,20.2l-.2,24.8c-4.6-.7-12.4-1.4-23.4-.9-17.9.9-47.8,15.6-51.2,45.4-3.2,30,.7,57.3,22.5,66.7,20.2,8.7,39.3,6.4,53.1-7.6,3,7.3,10.3,12.6,18.8,12.6h5.7c11.3,0,20.5-8.9,20.7-20.2l.7-120.6c.2-11-9-20.1-20.3-20.4Z"/>
  <path class="st2" d="M327.9,194.8c-2.3,10.1-3,25.9,13.6,35.1,18.4,10.3,43,10.8,41.8,17.9-1.1,6.4-15.6,5-24.6,3-9-1.8-27.3-8-30.8,7.1-2.8,12.4,9,20.2,22.5,22.7,16.3,3,35.4,4.1,53.8-5.3,22.1-11.2,23-30.3,20.9-41.3-1.8-11-11.7-21.1-25.7-25.7-13.3-4.4-30.8-7.6-28.3-12.6,2.8-5,15.9-3,23.2-.5,9,3,23.4,5.5,26.4-7.6s-6.4-18.6-16.8-21.3c-9.9-2.8-33.3-5.7-51,1.6-14.2,6-22.5,16.1-25,26.9Z"/>
  <path class="st2" d="M97.7,201.9l30.8-38.5c6.4-9.4,3.9-22-5.5-28.4l-4.8-3.2c-9.4-6.4-22.1-3.9-28.5,5.5l-17.7,26.1-14.5,21.3v-36.2c0-.9,0-1.6-.2-2.5-1.1-10.1-9.9-18.1-20.2-18.1h-5.7c-11.3,0-20.5,9.2-20.5,20.4l-.3,113.7c0,11.2,9.2,20.4,20.5,20.4h5.7c11.3,0,20.5-9.2,20.5-20.4v-36.6l11,16.3,20.9,31.3c6.2,9.4,19.1,11.9,28.5,5.5l4.8-3.2c9.4-6.2,11.9-19,5.5-28.4l-30.3-45Z"/>
  <path class="st2" d="M167.3,165.2h-5.5c-11,0-20,8.9-19.8,19.9l.5,77.9c0,11,9,19.9,20,19.7h5.5c11,0,20-8.9,19.8-19.9l-.5-77.9c0-10.9-9-19.9-20-19.7h0Z"/>
  <path class="st2" d="M167.1,114.1h-5.5c-11,0-20,8.9-19.8,19.9v4.1c0,11,9,19.9,20,19.7h5.5c11,0,20-8.9,19.8-19.9v-4.1c0-11-9-19.9-20-19.7Z"/>
</svg>