<svg width="100" height="92" viewBox="0 0 100 92" fill="none" xmlns="http://www.w3.org/2000/svg">
<g clip-path="url(#clip0_143_1831)">
<g clip-path="url(#clip1_143_1831)">
<path d="M81.527 29.4444H99.1197C99.6752 29.4444 100.045 29.0748 100.045 28.5192V24.0751C100.045 23.5196 99.6752 23.15 99.1197 23.15H87.6377V17.6878H96.8976C97.4532 17.6878 97.8228 17.3181 97.8228 16.7626V12.3185C97.8228 11.763 97.4532 11.3933 96.8976 11.3933H87.6377V6.30076H98.9338C99.4893 6.30076 99.859 5.93112 99.859 5.37561V0.925154C99.859 0.369639 99.4893 0 98.9338 0H81.527C80.9715 0 80.6018 0.369639 80.6018 0.925154V28.5171C80.6018 29.0726 80.9715 29.4423 81.527 29.4423M56.8055 29.4444H73.1943C73.7498 29.4444 74.1194 29.0748 74.1194 28.5192V23.7055C74.1194 23.15 73.7498 22.7803 73.1943 22.7803H63.195V0.925154C63.195 0.369639 62.8254 0 62.2699 0H56.8076C56.2521 0 55.8825 0.369639 55.8825 0.925154V28.5171C55.8825 29.0726 56.2521 29.4423 56.8076 29.4423M29.5832 29.4444H47.2688C47.8244 29.4444 48.194 29.0748 48.194 28.5192V24.0751C48.194 23.5196 47.8244 23.15 47.2688 23.15H35.696V17.6878H45.0468C45.6023 17.6878 45.9719 17.3181 45.9719 16.7626V12.3185C45.9719 11.763 45.6023 11.3933 45.0468 11.3933H35.696V6.30076H47.0851C47.6406 6.30076 48.0102 5.93112 48.0102 5.37561V0.925154C48.0102 0.369639 47.6406 0 47.0851 0H29.5853C29.0298 0 28.6602 0.369639 28.6602 0.925154V28.5171C28.6602 29.0726 29.0298 29.4423 29.5853 29.4423M7.91812 29.4444H13.3803C13.9358 29.4444 14.3055 29.0748 14.3055 28.5192V6.57324H20.602C21.1575 6.57324 21.5272 6.2036 21.5272 5.64809V0.925154C21.5272 0.369639 21.1575 0 20.602 0H0.694319C0.138804 0 -0.230835 0.369639 -0.230835 0.925154V5.64809C-0.230835 6.2036 0.138804 6.57324 0.694319 6.57324H6.99086V28.5171C6.99086 29.0726 7.3605 29.4423 7.91601 29.4423" fill="white"/>
<path d="M81.7129 67.1286H99.3056C99.8611 67.1286 100.231 66.759 100.231 66.2035V61.7593C100.231 61.2038 99.8611 60.8342 99.3056 60.8342H87.8235V55.372H97.0835C97.639 55.372 98.0087 55.0023 98.0087 54.4468V50.0027C98.0087 49.4472 97.639 49.0775 97.0835 49.0775H87.8235V43.985H99.1197C99.6752 43.985 100.045 43.6153 100.045 43.0598V38.6157C100.045 38.0602 99.6752 37.6906 99.1197 37.6906H81.7129C81.1574 37.6906 80.7877 38.0602 80.7877 38.6157V66.2077C80.7877 66.7632 81.1574 67.1328 81.7129 67.1328" fill="white"/>
<path d="M48.2869 67.1286H53.3795C53.935 67.1286 54.3047 66.7589 54.3047 66.2034V51.4812L69.7682 66.573C70.2308 67.0356 70.6026 67.1286 71.1581 67.1286H72.2691C72.8246 67.1286 73.1943 66.7589 73.1943 66.2034V38.6114C73.1943 38.0559 72.8246 37.6863 72.2691 37.6863H67.1765C66.621 37.6863 66.2514 38.0559 66.2514 38.6114V53.4266L51.1596 38.2418C50.697 37.7792 50.3273 37.6863 49.7697 37.6863H48.289C47.7335 37.6863 47.3639 38.0559 47.3639 38.6114V66.2034C47.3639 66.8519 47.7335 67.1286 48.289 67.1286" fill="white"/>
<path d="M33.2859 67.1286H38.7481C39.3036 67.1286 39.6732 66.7589 39.6732 66.2034V38.6114C39.6732 38.0559 39.3036 37.6863 38.7481 37.6863H33.2859C32.7304 37.6863 32.3607 38.0559 32.3607 38.6114V66.2034C32.3607 66.7589 32.7304 67.1286 33.2859 67.1286Z" fill="white"/>
<path d="M15.6024 67.5912C19.8606 67.5912 23.7513 65.555 26.2501 63.147C26.7127 62.6845 26.8985 62.2219 26.2501 61.6664L23.1937 58.5192C22.8241 58.1495 22.3594 58.1495 21.8968 58.6121C19.9514 60.1857 18.1011 60.9271 15.8791 60.9271C11.342 60.9271 7.91599 57.594 7.91599 52.3156C7.91599 47.0371 11.435 43.8899 15.8791 43.8899C17.9153 43.8899 19.5818 44.4454 21.5272 46.019C21.9897 46.3887 22.3615 46.3887 22.8241 45.9261L25.7875 42.8697C26.2501 42.4071 26.343 41.9445 25.7875 41.389C23.2866 38.9811 19.6768 37.2216 15.7882 37.2216C7.54846 37.2216 0.696411 43.7019 0.696411 52.4064C0.696411 61.1109 6.90001 67.5912 15.6045 67.5912" fill="white"/>
<path d="M24.2329 91.8585L22.8389 89.3407H15.2518L13.8577 91.8585H12.6368L18.4814 81.4199H19.6072L25.4517 91.8585H24.2329ZM15.7101 88.5H22.3784L19.0517 82.4802L15.7101 88.5Z" fill="white"/>
<path d="M26.2776 87.1693V85.9971C26.2776 82.7189 28.0033 81.2762 32.629 81.2762C37.2548 81.2762 38.9171 82.5436 38.934 85.3317V85.5218H37.7301V85.3317C37.7301 83.1625 36.2578 82.2901 32.629 82.2901C29.0002 82.2901 27.4816 83.3188 27.4816 86.0435V87.1208C27.4816 89.9406 28.9538 91.0009 32.629 91.0009C36.3043 91.0009 37.7301 90.1138 37.7301 87.8178V87.6911H38.934V87.8178C38.934 90.7475 37.1914 92 32.629 92C28.0033 92.0169 26.2776 90.5595 26.2776 87.1693Z" fill="white"/>
<path d="M51.037 81.4178V82.4317H46.143V91.8564H44.9707V82.4317H40.0598V81.4178H51.037Z" fill="white"/>
<path d="M53.4767 91.8585V81.4199H54.649V91.8585H53.4767Z" fill="white"/>
<path d="M57.8806 87.1693V85.9971C57.8806 82.7337 59.7351 81.2931 64.4708 81.2762C69.1916 81.291 71.044 82.7337 71.044 85.9971V87.1693C71.044 90.5426 69.1916 91.9852 64.4708 91.9852C59.7351 92.0021 57.8806 90.5447 57.8806 87.1693ZM69.8421 87.106V86.0604C69.8421 83.3357 68.3847 82.307 64.4729 82.307C60.561 82.307 59.1036 83.3378 59.1036 86.0604V87.106C59.1036 89.9258 60.5927 90.9713 64.4729 90.9713C68.353 90.9713 69.8421 89.9258 69.8421 87.106Z" fill="white"/>
<path d="M84.558 81.386H85.6522V91.8563H84.2898L75.372 82.8118V91.8563H74.2631V81.386H75.6107L84.5601 90.3841V81.386H84.558Z" fill="white"/>
</g>
</g>
<defs>
<clipPath id="clip0_143_1831">
<rect width="100" height="92" fill="white"/>
</clipPath>
<clipPath id="clip1_143_1831">
<rect width="100.462" height="92" fill="white" transform="translate(-0.230835)"/>
</clipPath>
</defs>
</svg>
