<svg width="100" height="92" viewBox="0 0 100 92" fill="none" xmlns="http://www.w3.org/2000/svg">
<g clip-path="url(#clip0_143_1850)">
<g clip-path="url(#clip1_143_1850)">
<path d="M81.3822 29.3091H98.8941C99.447 29.3091 99.815 28.9412 99.815 28.3882V23.9645C99.815 23.4115 99.447 23.0436 98.8941 23.0436H87.4648V17.6065H96.6822C97.2352 17.6065 97.6031 17.2386 97.6031 16.6856V12.2619C97.6031 11.7089 97.2352 11.341 96.6822 11.341H87.4648V6.27181H98.7091C99.262 6.27181 99.63 5.90387 99.63 5.35091V0.920903C99.63 0.367941 99.262 0 98.7091 0H81.3822C80.8292 0 80.4613 0.367941 80.4613 0.920903V28.3861C80.4613 28.9391 80.8292 29.307 81.3822 29.307M56.7743 29.3091H73.0878C73.6407 29.3091 74.0087 28.9412 74.0087 28.3882V23.5966C74.0087 23.0436 73.6407 22.6757 73.0878 22.6757H63.1344V0.920903C63.1344 0.367941 62.7665 0 62.2135 0H56.7764C56.2235 0 55.8555 0.367941 55.8555 0.920903V28.3861C55.8555 28.9391 56.2235 29.307 56.7764 29.307M29.6771 29.3091H47.2814C47.8344 29.3091 48.2023 28.9412 48.2023 28.3882V23.9645C48.2023 23.4115 47.8344 23.0436 47.2814 23.0436H35.7617V17.6065H45.0696C45.6226 17.6065 45.9905 17.2386 45.9905 16.6856V12.2619C45.9905 11.7089 45.6226 11.341 45.0696 11.341H35.7617V6.27181H47.0985C47.6515 6.27181 48.0194 5.90387 48.0194 5.35091V0.920903C48.0194 0.367941 47.6515 0 47.0985 0H29.6792C29.1262 0 28.7583 0.367941 28.7583 0.920903V28.3861C28.7583 28.9391 29.1262 29.307 29.6792 29.307M8.11152 29.3091H13.5486C14.1016 29.3091 14.4695 28.9412 14.4695 28.3882V6.54304H20.7371C21.2901 6.54304 21.658 6.1751 21.658 5.62214V0.920903C21.658 0.367941 21.2901 0 20.7371 0H0.920903C0.367941 0 0 0.367941 0 0.920903V5.62214C0 6.1751 0.367941 6.54304 0.920903 6.54304H7.18851V28.3861C7.18851 28.9391 7.55645 29.307 8.10942 29.307" fill="white"/>
<path d="M81.5671 66.8201H99.079C99.632 66.8201 99.9999 66.4522 99.9999 65.8992V61.4755C99.9999 60.9226 99.632 60.5546 99.079 60.5546H87.6497V55.1175H96.8672C97.4201 55.1175 97.7881 54.7496 97.7881 54.1966V49.7729C97.7881 49.22 97.4201 48.852 96.8672 48.852H87.6497V43.7828H98.894C99.447 43.7828 99.8149 43.4149 99.8149 42.8619V38.4382C99.8149 37.8853 99.447 37.5173 98.894 37.5173H81.5671C81.0142 37.5173 80.6462 37.8853 80.6462 38.4382V65.9034C80.6462 66.4564 81.0142 66.8243 81.5671 66.8243" fill="white"/>
<path d="M48.2948 66.8201H53.3639C53.9169 66.8201 54.2849 66.4522 54.2849 65.8992V51.2447L69.6774 66.2672C70.1378 66.7276 70.5079 66.8201 71.0609 66.8201H72.1668C72.7197 66.8201 73.0877 66.4522 73.0877 65.8992V38.434C73.0877 37.8811 72.7197 37.5131 72.1668 37.5131H67.0976C66.5446 37.5131 66.1767 37.8811 66.1767 38.434V53.1811L51.1542 38.0661C50.6938 37.6056 50.3258 37.5131 49.7707 37.5131H48.2969C47.7439 37.5131 47.376 37.8811 47.376 38.434V65.8992C47.376 66.5447 47.7439 66.8201 48.2969 66.8201" fill="white"/>
<path d="M33.3628 66.8201H38.7999C39.3529 66.8201 39.7208 66.4522 39.7208 65.8992V38.434C39.7208 37.8811 39.3529 37.5131 38.7999 37.5131H33.3628C32.8098 37.5131 32.4419 37.8811 32.4419 38.434V65.8992C32.4419 66.4522 32.8098 66.8201 33.3628 66.8201Z" fill="white"/>
<path d="M15.7604 67.2806C19.9991 67.2806 23.872 65.2538 26.3592 62.8569C26.8197 62.3965 27.0047 61.936 26.3592 61.3831L23.3169 58.2503C22.949 57.8824 22.4864 57.8824 22.026 58.3428C20.0895 59.9092 18.2477 60.6472 16.0359 60.6472C11.5197 60.6472 8.10938 57.3294 8.10938 52.0752C8.10938 46.821 11.6122 43.6882 16.0359 43.6882C18.0627 43.6882 19.7216 44.2412 21.658 45.8076C22.1185 46.1755 22.4885 46.1755 22.949 45.7151L25.8988 42.6727C26.3592 42.2123 26.4518 41.7518 25.8988 41.1989C23.4094 38.802 19.8162 37.0506 15.9455 37.0506C7.74354 37.0506 0.922974 43.5011 0.922974 52.1656C0.922974 60.8301 7.09807 67.2806 15.7626 67.2806" fill="white"/>
<path d="M39.5695 82.053H31.2119V85.9153H38.781V86.8446H31.2119V91.4323H30.045V81.0417H39.5695V82.0509V82.053Z" fill="white"/>
<path d="M42.5656 86.2644V81.046H43.7472V86.359C43.7472 89.4497 45.3241 90.5851 48.3517 90.5851C51.3793 90.5851 52.9562 89.4497 52.9562 86.359V81.046H54.1231V86.2644C54.1231 90.0805 52.1846 91.5943 48.3517 91.5943C44.5041 91.6111 42.5656 90.0805 42.5656 86.2644Z" fill="white"/>
<path d="M68.7881 81.0121H69.8751V91.4343H68.519L59.6422 82.4313V91.4343H58.5383V81.0121H59.8797L68.7881 89.9689V81.0121Z" fill="white"/>
</g>
</g>
<defs>
<clipPath id="clip0_143_1850">
<rect width="100" height="92" fill="white"/>
</clipPath>
<clipPath id="clip1_143_1850">
<rect width="100" height="91.5941" fill="white"/>
</clipPath>
</defs>
</svg>
