<svg width="100" height="92" viewBox="0 0 100 92" fill="none" xmlns="http://www.w3.org/2000/svg">
<g clip-path="url(#clip0_143_1681)">
<g clip-path="url(#clip1_143_1681)">
<path d="M81.527 29.4444H99.1197C99.6752 29.4444 100.045 29.0748 100.045 28.5192V24.0751C100.045 23.5196 99.6752 23.15 99.1197 23.15H87.6377V17.6878H96.8976C97.4532 17.6878 97.8228 17.3181 97.8228 16.7626V12.3185C97.8228 11.763 97.4532 11.3933 96.8976 11.3933H87.6377V6.30076H98.9338C99.4893 6.30076 99.859 5.93112 99.859 5.37561V0.925154C99.859 0.369639 99.4893 0 98.9338 0H81.527C80.9715 0 80.6018 0.369639 80.6018 0.925154V28.5171C80.6018 29.0726 80.9715 29.4423 81.527 29.4423M56.8055 29.4444H73.1943C73.7498 29.4444 74.1194 29.0748 74.1194 28.5192V23.7055C74.1194 23.15 73.7498 22.7803 73.1943 22.7803H63.195V0.925154C63.195 0.369639 62.8254 0 62.2699 0H56.8076C56.2521 0 55.8825 0.369639 55.8825 0.925154V28.5171C55.8825 29.0726 56.2521 29.4423 56.8076 29.4423M29.5832 29.4444H47.2688C47.8244 29.4444 48.194 29.0748 48.194 28.5192V24.0751C48.194 23.5196 47.8244 23.15 47.2688 23.15H35.696V17.6878H45.0468C45.6023 17.6878 45.9719 17.3181 45.9719 16.7626V12.3185C45.9719 11.763 45.6023 11.3933 45.0468 11.3933H35.696V6.30076H47.0851C47.6406 6.30076 48.0102 5.93112 48.0102 5.37561V0.925154C48.0102 0.369639 47.6406 0 47.0851 0H29.5853C29.0298 0 28.6602 0.369639 28.6602 0.925154V28.5171C28.6602 29.0726 29.0298 29.4423 29.5853 29.4423M7.91812 29.4444H13.3803C13.9358 29.4444 14.3055 29.0748 14.3055 28.5192V6.57324H20.602C21.1575 6.57324 21.5272 6.2036 21.5272 5.64809V0.925154C21.5272 0.369639 21.1575 0 20.602 0H0.694319C0.138804 0 -0.230835 0.369639 -0.230835 0.925154V5.64809C-0.230835 6.2036 0.138804 6.57324 0.694319 6.57324H6.99086V28.5171C6.99086 29.0726 7.3605 29.4423 7.91601 29.4423" fill="white"/>
<path d="M81.7129 67.1286H99.3056C99.8611 67.1286 100.231 66.759 100.231 66.2035V61.7593C100.231 61.2038 99.8611 60.8342 99.3056 60.8342H87.8235V55.372H97.0835C97.639 55.372 98.0087 55.0023 98.0087 54.4468V50.0027C98.0087 49.4472 97.639 49.0775 97.0835 49.0775H87.8235V43.985H99.1197C99.6752 43.985 100.045 43.6153 100.045 43.0598V38.6157C100.045 38.0602 99.6752 37.6906 99.1197 37.6906H81.7129C81.1574 37.6906 80.7877 38.0602 80.7877 38.6157V66.2077C80.7877 66.7632 81.1574 67.1328 81.7129 67.1328" fill="white"/>
<path d="M48.2869 67.1286H53.3795C53.935 67.1286 54.3047 66.7589 54.3047 66.2034V51.4812L69.7682 66.573C70.2308 67.0356 70.6026 67.1286 71.1581 67.1286H72.2691C72.8246 67.1286 73.1943 66.7589 73.1943 66.2034V38.6114C73.1943 38.0559 72.8246 37.6863 72.2691 37.6863H67.1765C66.621 37.6863 66.2514 38.0559 66.2514 38.6114V53.4266L51.1596 38.2418C50.697 37.7792 50.3273 37.6863 49.7697 37.6863H48.289C47.7335 37.6863 47.3639 38.0559 47.3639 38.6114V66.2034C47.3639 66.8519 47.7335 67.1286 48.289 67.1286" fill="white"/>
<path d="M33.2859 67.1286H38.7481C39.3036 67.1286 39.6732 66.7589 39.6732 66.2034V38.6114C39.6732 38.0559 39.3036 37.6863 38.7481 37.6863H33.2859C32.7304 37.6863 32.3607 38.0559 32.3607 38.6114V66.2034C32.3607 66.7589 32.7304 67.1286 33.2859 67.1286Z" fill="white"/>
<path d="M15.6024 67.5912C19.8606 67.5912 23.7513 65.555 26.2501 63.147C26.7127 62.6845 26.8985 62.2219 26.2501 61.6664L23.1937 58.5192C22.8241 58.1495 22.3594 58.1495 21.8968 58.6121C19.9514 60.1857 18.1011 60.9271 15.8791 60.9271C11.342 60.9271 7.91599 57.594 7.91599 52.3156C7.91599 47.0371 11.435 43.8899 15.8791 43.8899C17.9153 43.8899 19.5818 44.4454 21.5272 46.019C21.9897 46.3887 22.3615 46.3887 22.8241 45.9261L25.7875 42.8697C26.2501 42.4071 26.343 41.9445 25.7875 41.389C23.2866 38.9811 19.6768 37.2216 15.7882 37.2216C7.54846 37.2216 0.696411 43.7019 0.696411 52.4064C0.696411 61.1109 6.90001 67.5912 15.6045 67.5912" fill="white"/>
<path d="M21.468 81.4178C24.1125 81.4178 25.0482 82.5415 25.0482 84.4277V84.5228C25.0482 86.4385 24.1294 87.5644 21.468 87.5644H15.86V91.8564H14.6877V81.4178H21.468ZM23.8442 84.4446C23.8442 83.304 23.3373 82.4021 21.3729 82.4021H15.86V86.616H21.3729C23.3542 86.616 23.8442 85.714 23.8442 84.5418V84.4467V84.4446Z" fill="white"/>
<path d="M27.6315 91.8585V81.4199H28.8038V91.8585H27.6315Z" fill="white"/>
<path d="M39.4641 81.4178C42.1086 81.4178 43.0443 82.5415 43.0443 84.4277V84.5228C43.0443 86.4385 42.1255 87.5644 39.4641 87.5644H33.8561V91.8564H32.6838V81.4178H39.4641ZM41.8403 84.4446C41.8403 83.304 41.3334 82.4021 39.369 82.4021H33.8561V86.616H39.369C41.3482 86.616 41.8403 85.714 41.8403 84.5418V84.4467V84.4446Z" fill="white"/>
<path d="M44.9771 87.1693V85.9971C44.9771 82.7337 46.8295 81.2931 51.5672 81.2762C56.288 81.291 58.1404 82.7337 58.1404 85.9971V87.1693C58.1404 90.5426 56.288 91.9852 51.5672 91.9852C46.8316 92.0021 44.9771 90.5447 44.9771 87.1693ZM56.9365 87.106V86.0604C56.9365 83.3357 55.479 82.307 51.5672 82.307C47.6553 82.307 46.1979 83.3378 46.1979 86.0604V87.106C46.1979 89.9258 47.687 90.9713 51.5672 90.9713C55.4473 90.9713 56.9365 89.9258 56.9365 87.106Z" fill="white"/>
<path d="M60.7089 87.1693V85.9971C60.7089 82.7189 62.4345 81.2762 67.0603 81.2762C71.6861 81.2762 73.3484 82.5436 73.3653 85.3317V85.5218H72.1613V85.3317C72.1613 83.1625 70.6891 82.2901 67.0603 82.2901C63.4315 82.2901 61.9128 83.3188 61.9128 86.0435V87.1208C61.9128 89.9406 63.385 91.0009 67.0603 91.0009C70.7356 91.0009 72.1613 90.1138 72.1613 87.8178V87.6911H73.3653V87.8178C73.3653 90.7475 71.6227 92 67.0603 92C62.4345 92.0169 60.7089 90.5595 60.7089 87.1693Z" fill="white"/>
<path d="M85.6437 91.8585L84.2496 89.3407H76.6625L75.2684 91.8585H74.0497L79.8942 81.4199H81.02L86.8645 91.8585H85.6437ZM77.1209 88.5H83.7891L80.4624 82.4802L77.1187 88.5H77.1209Z" fill="white"/>
</g>
</g>
<defs>
<clipPath id="clip0_143_1681">
<rect width="100" height="92" fill="white"/>
</clipPath>
<clipPath id="clip1_143_1681">
<rect width="100.462" height="92" fill="white" transform="translate(-0.230835)"/>
</clipPath>
</defs>
</svg>
