<svg width="100" height="92" viewBox="0 0 100 92" fill="none" xmlns="http://www.w3.org/2000/svg">
<g clip-path="url(#clip0_143_2308)">
<path d="M81.3822 29.439H98.8941C99.447 29.439 99.815 29.0694 99.815 28.514V24.0707C99.815 23.5153 99.447 23.1457 98.8941 23.1457H87.4648V17.6845H96.6822C97.2352 17.6845 97.6031 17.3149 97.6031 16.7595V12.3162C97.6031 11.7608 97.2352 11.3912 96.6822 11.3912H87.4648V6.2996H98.7091C99.262 6.2996 99.63 5.93003 99.63 5.37462V0.924984C99.63 0.369571 99.262 0 98.7091 0H81.3822C80.8292 0 80.4613 0.369571 80.4613 0.924984V28.5119C80.4613 29.0673 80.8292 29.4369 81.3822 29.4369M56.7743 29.439H73.0878C73.6407 29.439 74.0087 29.0694 74.0087 28.514V23.7011C74.0087 23.1457 73.6407 22.7761 73.0878 22.7761H63.1344V0.924984C63.1344 0.369571 62.7665 0 62.2135 0H56.7764C56.2235 0 55.8555 0.369571 55.8555 0.924984V28.5119C55.8555 29.0673 56.2235 29.4369 56.7764 29.4369M29.6771 29.439H47.2814C47.8344 29.439 48.2023 29.0694 48.2023 28.514V24.0707C48.2023 23.5153 47.8344 23.1457 47.2814 23.1457H35.7617V17.6845H45.0696C45.6226 17.6845 45.9905 17.3149 45.9905 16.7595V12.3162C45.9905 11.7608 45.6226 11.3912 45.0696 11.3912H35.7617V6.2996H47.0985C47.6515 6.2996 48.0194 5.93003 48.0194 5.37462V0.924984C48.0194 0.369571 47.6515 0 47.0985 0H29.6792C29.1262 0 28.7583 0.369571 28.7583 0.924984V28.5119C28.7583 29.0673 29.1262 29.4369 29.6792 29.4369M8.11152 29.439H13.5486C14.1016 29.439 14.4695 29.0694 14.4695 28.514V6.57203H20.7371C21.2901 6.57203 21.658 6.20246 21.658 5.64705V0.924984C21.658 0.369571 21.2901 0 20.7371 0H0.920903C0.367941 0 0 0.369571 0 0.924984V5.64705C0 6.20246 0.367941 6.57203 0.920903 6.57203H7.18851V28.5119C7.18851 29.0673 7.55645 29.4369 8.10942 29.4369" fill="white"/>
<path d="M81.5674 67.1162H99.0793C99.6322 67.1162 100 66.7467 100 66.1913V61.748C100 61.1925 99.6322 60.823 99.0793 60.823H87.65V55.3618H96.8674C97.4204 55.3618 97.7883 54.9922 97.7883 54.4368V49.9935C97.7883 49.4381 97.4204 49.0685 96.8674 49.0685H87.65V43.9769H98.8942C99.4472 43.9769 99.8151 43.6073 99.8151 43.0519V38.6086C99.8151 38.0532 99.4472 37.6836 98.8942 37.6836H81.5674C81.0144 37.6836 80.6465 38.0532 80.6465 38.6086V66.1955C80.6465 66.7509 81.0144 67.1205 81.5674 67.1205" fill="white"/>
<path d="M48.2947 67.1163H53.3639C53.9169 67.1163 54.2848 66.7467 54.2848 66.1913V51.4718L69.6773 66.5609C70.1378 67.0234 70.5078 67.1163 71.0608 67.1163H72.1667C72.7197 67.1163 73.0876 66.7467 73.0876 66.1913V38.6044C73.0876 38.049 72.7197 37.6794 72.1667 37.6794H67.0975C66.5446 37.6794 66.1766 38.049 66.1766 38.6044V53.4168L51.1541 38.2349C50.6937 37.7724 50.3257 37.6794 49.7707 37.6794H48.2968C47.7439 37.6794 47.3759 38.049 47.3759 38.6044V66.1913C47.3759 66.8397 47.7439 67.1163 48.2968 67.1163" fill="white"/>
<path d="M15.7603 67.5788C19.999 67.5788 23.8718 65.543 26.3591 63.1355C26.8196 62.673 27.0046 62.2105 26.3591 61.6551L23.3168 58.5085C22.9488 58.1389 22.4863 58.1389 22.0258 58.6014C20.0894 60.1747 18.2476 60.916 16.0358 60.916C11.5195 60.916 8.10926 57.5835 8.10926 52.306C8.10926 47.0285 11.6121 43.8819 16.0358 43.8819C18.0626 43.8819 19.7215 44.4373 21.6579 46.0106C22.1183 46.3802 22.4884 46.3802 22.9488 45.9177L25.8987 42.8619C26.3591 42.3994 26.4516 41.9369 25.8987 41.3815C23.4093 38.974 19.8161 37.2148 15.9453 37.2148C7.74342 37.2148 0.922852 43.694 0.922852 52.3968C0.922852 61.0997 7.09795 67.5788 15.7624 67.5788" fill="white"/>
<path d="M33.3623 67.1166H38.7994C39.3524 67.1166 39.7203 66.747 39.7203 66.1916V38.6047C39.7203 38.0493 39.3524 37.6797 38.7994 37.6797H33.3623C32.8093 37.6797 32.4414 38.0493 32.4414 38.6047V66.1916C32.4414 66.747 32.8093 67.1166 33.3623 67.1166Z" fill="white"/>
<path d="M11.4376 81.4028C14.0699 81.4028 15.0013 82.5263 15.0013 84.4121V84.5072C15.0013 86.4226 14.0867 87.5482 11.4376 87.5482H5.85537V91.8395H4.68848V81.4028H11.4376ZM13.8029 84.429C13.8029 83.2886 13.2983 82.3869 11.3429 82.3869H5.85537V86.6H11.3429C13.313 86.6 13.8029 85.6982 13.8029 84.5262V84.4311V84.429Z" fill="white"/>
<path d="M26.7645 91.8415L23.2806 87.47H18.7392V91.8415H17.5723V81.4048H24.3361C26.8423 81.4048 27.7884 82.4818 27.8199 84.3191V84.4775C27.8199 86.2831 26.9537 87.3749 24.6346 87.47L28.1353 91.8415H26.7645ZM18.7371 82.3699V86.5978H24.2877C26.1169 86.5978 26.6215 85.6791 26.6215 84.5071V84.3656C26.59 83.2252 26.0706 82.3699 24.2877 82.3699H18.7371Z" fill="white"/>
<path d="M40.5445 82.4017H32.1239V86.0911H39.7561V86.9781H32.1239V90.8427H40.5445V91.8395H30.957V81.4028H40.5445V82.3996V82.4017Z" fill="white"/>
<path d="M56.1098 81.3711H57.6383V91.8395H56.4882V82.8114L51.1121 90.9673H50.0566L44.569 82.7163V91.8395H43.4169V81.3711H45.0085L50.5907 89.6537L56.1098 81.3711Z" fill="white"/>
<path d="M61.4863 91.8415V81.4048H62.6532V91.8415H61.4863Z" fill="white"/>
<path d="M66.0586 86.6464V81.4048H67.2402V86.7414C67.2402 89.8458 68.8171 90.9862 71.8447 90.9862C74.8724 90.9862 76.4492 89.8458 76.4492 86.7414V81.4048H77.6161V86.6464C77.6161 90.4793 75.6776 91.9999 71.8447 91.9999C67.9971 92.0168 66.0586 90.4793 66.0586 86.6464Z" fill="white"/>
<path d="M93.7028 81.3711H95.2313V91.8395H94.0813V82.8114L88.7051 90.9673H87.6496L82.1621 82.7163V91.8395H81.0099V81.3711H82.6015L88.1837 89.6537L93.7028 81.3711Z" fill="white"/>
</g>
<defs>
<clipPath id="clip0_143_2308">
<rect width="100" height="92" fill="white"/>
</clipPath>
</defs>
</svg>
