<svg width="100" height="92" viewBox="0 0 100 92" fill="none" xmlns="http://www.w3.org/2000/svg">
<g clip-path="url(#clip0_143_1746)">
<g clip-path="url(#clip1_143_1746)">
<path d="M81.5213 29.439H99.1107C99.6661 29.439 100.036 29.0694 100.036 28.514V24.0707C100.036 23.5153 99.6661 23.1457 99.1107 23.1457H87.6308V17.6845H96.8891C97.4445 17.6845 97.8141 17.3149 97.8141 16.7595V12.3162C97.8141 11.7608 97.4445 11.3912 96.8891 11.3912H87.6308V6.2996H98.9249C99.4803 6.2996 99.8499 5.93003 99.8499 5.37462V0.924984C99.8499 0.369571 99.4803 0 98.9249 0H81.5213C80.9659 0 80.5963 0.369571 80.5963 0.924984V28.5119C80.5963 29.0673 80.9659 29.4369 81.5213 29.4369M56.8043 29.439H73.1901C73.7455 29.439 74.1151 29.0694 74.1151 28.514V23.7011C74.1151 23.1457 73.7455 22.7761 73.1901 22.7761H63.1926V0.924984C63.1926 0.369571 62.8231 0 62.2677 0H56.8064C56.251 0 55.8815 0.369571 55.8815 0.924984V28.5119C55.8815 29.0673 56.251 29.4369 56.8064 29.4369M29.587 29.439H47.2694C47.8248 29.439 48.1944 29.0694 48.1944 28.514V24.0707C48.1944 23.5153 47.8248 23.1457 47.2694 23.1457H35.6987V17.6845H45.0477C45.6032 17.6845 45.9727 17.3149 45.9727 16.7595V12.3162C45.9727 11.7608 45.6032 11.3912 45.0477 11.3912H35.6987V6.2996H47.0857C47.6411 6.2996 48.0107 5.93003 48.0107 5.37462V0.924984C48.0107 0.369571 47.6411 0 47.0857 0H29.5891C29.0337 0 28.6641 0.369571 28.6641 0.924984V28.5119C28.6641 29.0673 29.0337 29.4369 29.5891 29.4369M7.9259 29.439H13.3871C13.9425 29.439 14.3121 29.0694 14.3121 28.514V6.57203H20.6075C21.1629 6.57203 21.5325 6.20246 21.5325 5.64705V0.924984C21.5325 0.369571 21.1629 0 20.6075 0H0.703426C0.148014 0 -0.221558 0.369571 -0.221558 0.924984V5.64705C-0.221558 6.20246 0.148014 6.57203 0.703426 6.57203H6.99881V28.5119C6.99881 29.0673 7.36838 29.4369 7.92379 29.4369" fill="white"/>
<path d="M81.7071 67.1162H99.2966C99.852 67.1162 100.222 66.7467 100.222 66.1913V61.748C100.222 61.1925 99.852 60.823 99.2966 60.823H87.8166V55.3618H97.0749C97.6303 55.3618 97.9999 54.9922 97.9999 54.4368V49.9935C97.9999 49.4381 97.6303 49.0685 97.0749 49.0685H87.8166V43.9769H99.1107C99.6661 43.9769 100.036 43.6073 100.036 43.0519V38.6086C100.036 38.0532 99.6661 37.6836 99.1107 37.6836H81.7071C81.1517 37.6836 80.7821 38.0532 80.7821 38.6086V66.1955C80.7821 66.7509 81.1517 67.1205 81.7071 67.1205" fill="white"/>
<path d="M48.2874 67.1163H53.379C53.9344 67.1163 54.304 66.7467 54.304 66.1913V51.4718L69.7647 66.5608C70.2272 67.0233 70.5989 67.1163 71.1543 67.1163H72.2652C72.8206 67.1163 73.1901 66.7467 73.1901 66.1913V38.6044C73.1901 38.049 72.8206 37.6794 72.2652 37.6794H67.1735C66.6181 37.6794 66.2485 38.049 66.2485 38.6044V53.4168L51.1595 38.2348C50.697 37.7723 50.3274 37.6794 49.7699 37.6794H48.2895C47.7341 37.6794 47.3645 38.049 47.3645 38.6044V66.1913C47.3645 66.8396 47.7341 67.1163 48.2895 67.1163" fill="white"/>
<path d="M33.2891 67.1163H38.7503C39.3057 67.1163 39.6753 66.7467 39.6753 66.1913V38.6044C39.6753 38.049 39.3057 37.6794 38.7503 37.6794H33.2891C32.7337 37.6794 32.3641 38.049 32.3641 38.6044V66.1913C32.3641 66.7467 32.7337 67.1163 33.2891 67.1163Z" fill="white"/>
<path d="M15.6088 67.5788C19.8662 67.5788 23.7563 65.5429 26.2546 63.1354C26.717 62.673 26.9029 62.2105 26.2546 61.6551L23.1987 58.5084C22.8292 58.1388 22.3645 58.1388 21.9021 58.6013C19.9571 60.1747 18.1071 60.9159 15.8854 60.9159C11.3492 60.9159 7.92382 57.5834 7.92382 52.306C7.92382 47.0285 11.4421 43.8818 15.8854 43.8818C17.9212 43.8818 19.5875 44.4373 21.5325 46.0106C21.995 46.3801 22.3667 46.3801 22.8292 45.9177L25.7921 42.8618C26.2546 42.3993 26.3475 41.9368 25.7921 41.3814C23.2916 38.9739 19.6825 37.2148 15.7946 37.2148C7.55636 37.2148 0.705566 43.6939 0.705566 52.3968C0.705566 61.0996 6.90803 67.5788 15.6109 67.5788" fill="white"/>
<path d="M25.1881 81.4028V82.4165H20.295V91.8395H19.1229V82.4165H14.2129V81.4028H25.1881Z" fill="white"/>
<path d="M26.3453 87.1533V85.9812C26.3453 82.7185 28.1974 81.2782 32.9343 81.2613C37.6542 81.2761 39.5063 82.7185 39.5063 85.9812V87.1533C39.5063 90.5259 37.6521 91.9683 32.9343 91.9683C28.1995 91.9852 26.3453 90.528 26.3453 87.1533ZM38.3025 87.09V86.0446C38.3025 83.3203 36.8454 82.2919 32.9343 82.2919C29.0231 82.2919 27.566 83.3224 27.566 86.0446V87.09C27.566 89.9093 29.0548 90.9546 32.9343 90.9546C36.8137 90.9546 38.3025 89.9093 38.3025 87.09Z" fill="white"/>
<path d="M42.2623 86.6465V81.4049H43.4492V86.7415C43.4492 89.8459 45.0331 90.9863 48.0741 90.9863C51.1151 90.9863 52.699 89.8459 52.699 86.7415V81.4049H53.8711V86.6465C53.8711 90.4795 51.924 92 48.0741 92C44.2094 92.0169 42.2623 90.4795 42.2623 86.6465Z" fill="white"/>
<path d="M56.6292 87.1533V85.9812C56.6292 82.7037 58.3545 81.2613 62.9794 81.2613C67.6044 81.2613 69.2664 82.5284 69.2833 85.316V85.5061H68.0795V85.316C68.0795 83.1472 66.6076 82.275 62.9794 82.275C59.3513 82.275 57.8329 83.3034 57.8329 86.0277V87.1047C57.8329 89.924 59.3048 90.9842 62.9794 90.9842C66.654 90.9842 68.0795 90.0972 68.0795 87.8016V87.6749H69.2833V87.8016C69.2833 90.7308 67.541 91.9831 62.9794 91.9831C58.3545 92 56.6292 90.5428 56.6292 87.1533Z" fill="white"/>
<path d="M83.0946 81.4028H84.2667V91.8395H83.0946V87.1998H73.5914V91.8395H72.4193V81.4028H73.5914V86.1861H83.0946V81.4028Z" fill="white"/>
</g>
</g>
<defs>
<clipPath id="clip0_143_1746">
<rect width="100" height="92" fill="white"/>
</clipPath>
<clipPath id="clip1_143_1746">
<rect width="100.443" height="92" fill="white" transform="translate(-0.221558)"/>
</clipPath>
</defs>
</svg>
